<svg width="23" height="22" viewBox="0 0 23 22" fill="none" xmlns="http://www.w3.org/2000/svg">
<path d="M10.7812 16.5C10.7812 16.7735 10.6726 17.0358 10.4792 17.2292C10.2858 17.4226 10.0235 17.5312 9.75 17.5312H3.5625C3.289 17.5312 3.02669 17.4226 2.8333 17.2292C2.6399 17.0358 2.53125 16.7735 2.53125 16.5C2.53125 16.2265 2.6399 15.9642 2.8333 15.7708C3.02669 15.5774 3.289 15.4688 3.5625 15.4688H9.75C10.0235 15.4688 10.2858 15.5774 10.4792 15.7708C10.6726 15.9642 10.7812 16.2265 10.7812 16.5ZM3.5625 6.53125H18.6875C18.961 6.53125 19.2233 6.4226 19.4167 6.2292C19.6101 6.03581 19.7188 5.7735 19.7188 5.5C19.7188 5.2265 19.6101 4.96419 19.4167 4.7708C19.2233 4.5774 18.961 4.46875 18.6875 4.46875H3.5625C3.289 4.46875 3.02669 4.5774 2.8333 4.7708C2.6399 4.96419 2.53125 5.2265 2.53125 5.5C2.53125 5.7735 2.6399 6.03581 2.8333 6.2292C3.02669 6.4226 3.289 6.53125 3.5625 6.53125ZM3.5625 12.0312H8.375C8.6485 12.0312 8.91081 11.9226 9.1042 11.7292C9.2976 11.5358 9.40625 11.2735 9.40625 11C9.40625 10.7265 9.2976 10.4642 9.1042 10.2708C8.91081 10.0774 8.6485 9.96875 8.375 9.96875H3.5625C3.289 9.96875 3.02669 10.0774 2.8333 10.2708C2.6399 10.4642 2.53125 10.7265 2.53125 11C2.53125 11.2735 2.6399 11.5358 2.8333 11.7292C3.02669 11.9226 3.289 12.0312 3.5625 12.0312ZM21.7812 12.375C21.7812 13.8359 20.9623 15.2591 19.3475 16.6048C18.6484 17.1839 17.8906 17.6882 17.0865 18.1096C16.9432 18.1813 16.7852 18.2186 16.625 18.2186C16.4648 18.2186 16.3068 18.1813 16.1635 18.1096C15.3594 17.6882 14.6016 17.1839 13.9025 16.6048C12.2877 15.2591 11.4688 13.8359 11.4688 12.375C11.4691 11.7779 11.6423 11.1937 11.9673 10.6929C12.2923 10.192 12.7553 9.79594 13.3004 9.55237C13.8455 9.30879 14.4494 9.22815 15.0394 9.32018C15.6293 9.41221 16.18 9.67298 16.625 10.071C17.07 9.67298 17.6207 9.41221 18.2106 9.32018C18.8006 9.22815 19.4045 9.30879 19.9496 9.55237C20.4947 9.79594 20.9577 10.192 21.2827 10.6929C21.6077 11.1937 21.7809 11.7779 21.7812 12.375ZM19.7188 12.375C19.7188 12.1015 19.6101 11.8392 19.4167 11.6458C19.2233 11.4524 18.961 11.3438 18.6875 11.3438C18.414 11.3438 18.1517 11.4524 17.9583 11.6458C17.7649 11.8392 17.6562 12.1015 17.6562 12.375C17.6562 12.6485 17.5476 12.9108 17.3542 13.1042C17.1608 13.2976 16.8985 13.4062 16.625 13.4062C16.3515 13.4062 16.0892 13.2976 15.8958 13.1042C15.7024 12.9108 15.5938 12.6485 15.5938 12.375C15.5938 12.1015 15.4851 11.8392 15.2917 11.6458C15.0983 11.4524 14.836 11.3438 14.5625 11.3438C14.289 11.3438 14.0267 11.4524 13.8333 11.6458C13.6399 11.8392 13.5312 12.1015 13.5312 12.375C13.5312 13.8557 15.4949 15.3338 16.625 16.0093C17.7542 15.3347 19.7188 13.8557 19.7188 12.375Z" fill="#A3A3A3"/>
</svg>
