<svg width="23" height="22" viewBox="0 0 23 22" fill="none" xmlns="http://www.w3.org/2000/svg">
<path d="M19.9652 9.09649L13.0902 2.22149C12.7679 1.89927 12.3308 1.71826 11.875 1.71826C11.4193 1.71826 10.9822 1.89927 10.6599 2.22149L3.78485 9.09649C3.6246 9.25576 3.49757 9.44526 3.41112 9.654C3.32467 9.86274 3.28053 10.0866 3.28126 10.3125V18.5625C3.28126 18.836 3.38991 19.0983 3.5833 19.2917C3.7767 19.4851 4.039 19.5938 4.31251 19.5938H19.4375C19.711 19.5938 19.9733 19.4851 20.1667 19.2917C20.3601 19.0983 20.4688 18.836 20.4688 18.5625V10.3125C20.4695 10.0866 20.4253 9.86274 20.3389 9.654C20.2524 9.44526 20.1254 9.25576 19.9652 9.09649ZM18.4063 17.5313H5.34376V10.4543L11.875 3.92305L18.4063 10.4543V17.5313Z" fill="#8A57DC"/>
</svg>
