<svg width="84" height="47" viewBox="0 0 84 47" fill="none" xmlns="http://www.w3.org/2000/svg">
<path d="M17.3892 41.453H14.5988L14.3408 41.0148C14.4154 40.8159 14.4993 40.614 14.5055 40.3964C14.5366 39.1845 14.6889 35.3313 14.0115 34.5265C13.0015 33.5166 10.9786 33.6968 10.6865 35.2319C10.3664 36.9223 10.8978 39.2622 10.6492 40.9713C10.6181 41.1951 10.5405 41.3225 10.3571 41.4499H7.56665V35.7695C7.56665 35.6203 7.15336 34.5731 6.99799 34.4115C6.38583 33.7745 4.90048 33.8087 4.22927 34.3121C4.13605 34.3836 3.71344 35.1387 3.71344 35.1884V41.4468H0.637085V31.4346H3.71655L3.81288 32.3979C5.58722 30.5832 8.48334 30.9965 9.98112 32.9728H10.1645C11.7896 30.5987 15.7951 30.6671 17.0443 33.4172C17.1065 33.557 17.3892 34.368 17.3892 34.4209V41.4468V41.453Z" fill="#8A57DC"/>
<path d="M41.8383 28.1686V41.4528H38.7588V40.1042C37.2952 41.5771 34.7782 42.037 33.0816 40.6791C29.4521 37.7736 31.2047 30.3811 36.5028 31.2915C37.3822 31.4438 38.069 32.0995 38.7588 32.5966V28.1686H41.8383ZM36.0088 33.9857C33.8988 34.3523 33.7745 37.8668 35.6732 38.6592C39.2374 40.1477 40.123 33.271 36.0088 33.9857Z" fill="#8A57DC"/>
<path d="M26.438 41.4528V40.2969C25.9564 40.6076 25.5586 41.0675 25.0024 41.2695C17.3301 44.0662 16.8827 28.6969 25.223 31.5961L26.438 32.4009L26.4629 31.5588L26.7519 31.2698L29.5299 31.332L29.7132 31.7266C29.5175 34.66 29.9618 37.8917 29.7194 40.7879C29.6946 41.08 29.6977 41.2757 29.4211 41.4528H26.438ZM23.6817 33.9826C22.1777 34.3213 21.7458 36.7606 22.5848 37.8917C23.6102 39.2745 25.8258 39.0259 26.351 37.4194C26.9725 35.527 25.8134 33.4978 23.6817 33.9826Z" fill="#8A57DC"/>
<path d="M80.9205 41.453V40.1044C78.7671 42.2951 75.5261 41.9533 74.0221 39.2063C71.9214 35.3748 74.743 29.6789 79.516 31.5962L80.9237 32.5968V31.4408H84.0031V41.164L83.7141 41.453H80.9237H80.9205ZM77.9747 33.9827C75.6783 34.5017 76.1196 39.0074 78.6708 38.8956C81.9211 38.7557 81.4923 33.1872 77.9747 33.9827Z" fill="#8A57DC"/>
<path d="M58.5875 41.4528V40.1042C57.4191 41.226 56.5086 41.6269 54.8493 41.4373C50.5828 40.9463 49.865 33.9702 53.3235 31.8571C55.129 30.754 57.1363 31.1455 58.5875 32.5967V31.4407H61.6701V41.4528H58.5906H58.5875ZM55.8343 33.9826C53.625 34.4549 53.7399 38.2149 55.8872 38.8644C56.8815 39.1658 58.4228 38.1496 58.5813 37.1118C58.8641 35.2349 57.9194 33.5351 55.8374 33.9826H55.8343Z" fill="#8A57DC"/>
<path d="M72.0643 34.7128H69.1775L68.7891 33.8489C68.3323 33.4512 67.4187 33.4823 66.8594 33.6407C66.3964 34.4331 66.6605 34.7532 67.3939 35.0515C69.1061 35.7507 71.7753 35.6264 72.0581 38.0937C72.5833 42.674 63.724 42.587 63.4039 38.1776H66.4834L66.7164 38.9078C67.2727 39.1968 68.5933 39.3522 68.9973 38.8643L69.162 38.305C67.8289 36.8165 64.1653 37.4722 63.7955 34.9956C63.0528 30.0237 71.8406 29.9025 72.0674 34.7128H72.0643Z" fill="#8A57DC"/>
<path d="M43.9578 31.4407H47.0403L47.1367 32.9789C48.013 31.9192 48.8893 31.3164 50.3125 31.248V34.5202C49.4734 34.4735 47.7861 34.4735 47.379 35.3405C47.32 35.4648 47.0403 36.2976 47.0403 36.3504V41.4528H44.2499L43.9609 41.1638V31.4407H43.9578Z" fill="#8A57DC"/>
<path d="M52.8107 23.3554C52.6429 22.2181 52.27 21.2082 52.4689 20.0273C53.6808 12.8709 65.9738 13.337 67.8289 6.41369C66.9713 6.5007 65.9956 6.08741 65.4176 5.4535C65.2436 5.26394 65.0633 5.18315 65.1348 4.87241C65.5512 4.85376 65.7687 5.18315 66.1975 5.24841C69.799 5.79531 70.3926 0.636983 66.8656 0.441215C67.512 -0.394683 68.9725 0.114935 69.6592 0.633876C72.0115 2.41443 70.9674 6.23968 68.0216 6.41058C68.5965 8.20046 70.0663 9.77593 71.6169 10.8045C75.1594 13.1537 82.8409 15.071 83.4065 19.9994C83.537 21.1367 83.3226 22.2305 83.2294 23.3523H52.8107V23.3554Z" fill="#8A57DC"/>
<path d="M83.8104 23.9336H52.2358V29.903H83.8104V23.9336Z" fill="#8A57DC"/>
<path d="M23.1597 18.9273C23.8931 21.4785 25.1609 25.4125 21.8173 26.5343C20.68 26.9165 18.3712 27.0532 17.961 25.6642H17.6751C17.498 25.7419 17.4607 26.0619 17.3271 26.18C16.2705 27.1247 13.2097 27.0656 12.4764 25.6642C11.3142 26.9755 8.80649 27.1029 7.26521 26.4441C6.66236 26.1862 5.98495 25.341 5.6711 24.763C5.12108 23.75 5.02475 21.8172 3.25973 22.7991C1.84274 23.5884 2.44559 24.7879 2.75322 26.0464C2.08202 26.0029 0.876334 26.9227 0.475476 26.1117C-1.21807 22.681 1.87071 19.7321 5.31063 20.3163C7.73754 20.7265 6.94514 23.9023 8.66355 24.2783C11.2303 24.8407 11.3422 23.2901 11.6094 21.2361L13.9213 21.6245C13.7287 22.1497 13.4428 23.663 13.7659 24.0887L15.7174 24.2876C16.7242 23.9924 16.5782 21.1677 17.1126 21.0621L19.12 21.435C19.0641 22.4138 18.3587 23.7065 19.4401 24.2907C20.1517 24.3591 20.9627 24.4554 21.5314 23.9458C22.1622 22.9763 20.5619 19.7507 20.854 19.5177L23.1566 18.9366L23.1597 18.9273Z" fill="#8A57DC"/>
<path d="M39.5824 23.8805C40.1448 24.5113 41.4779 24.5082 42.0062 23.8122C42.8638 22.6811 43.0316 21.2952 44.3523 20.3816C47.1676 18.4301 50.4428 21.9166 49.2558 24.8998C48.3174 27.2521 45.5051 26.9103 43.6376 25.8848C42.0559 26.9382 40.0174 27.1495 38.473 25.9097C36.9753 26.9413 35.2444 26.9911 33.5105 26.584C33.1749 26.5063 31.9661 26.2204 32.0407 25.7916L32.7958 23.9365C33.7839 24.3622 37.1524 24.8904 36.7546 23.1596C36.5278 22.1683 34.9057 20.0211 34.9026 19.5985C34.9026 19.3002 36.2978 18.3493 36.5464 18.3431C37.171 18.3307 38.3953 20.8166 38.6626 21.435C38.9298 22.0534 39.1877 23.4424 39.5824 23.8836V23.8805ZM45.617 22.2212C43.8924 23.9303 45.0421 24.5704 47.0464 24.2317C47.6337 23.8464 46.919 22.4418 46.3286 22.2305L45.617 22.2212Z" fill="#8A57DC"/>
<path d="M24.9092 30.2725L24.3312 28.1781C25.6518 27.9326 27.8395 26.497 28.1285 25.1421C28.4454 23.663 27.4417 22.5816 27.2149 21.2454L29.2098 20.4748C32.2303 24.5455 29.707 29.6137 24.9061 30.2725H24.9092Z" fill="#8A57DC"/>
</svg>
