<svg width="23" height="22" viewBox="0 0 23 22" fill="none" xmlns="http://www.w3.org/2000/svg">
<g clip-path="url(#clip0_223_18)">
<path d="M19.2812 10.6562C19.0477 10.6554 18.8149 10.6842 18.5886 10.7422C18.4777 7.17234 16.0663 5.38656 14.2917 4.07516C13.2811 3.32836 12.4062 2.68211 12.4062 2.0625C12.4062 1.789 12.2976 1.52669 12.1042 1.3333C11.9108 1.1399 11.6485 1.03125 11.375 1.03125C11.1015 1.03125 10.8392 1.1399 10.6458 1.3333C10.4524 1.52669 10.3438 1.789 10.3438 2.0625C10.3438 2.68211 9.46891 3.32836 8.45312 4.07773C6.68023 5.38914 4.26883 7.17148 4.15625 10.7448C3.74998 10.6399 3.32508 10.6293 2.91411 10.714C2.50313 10.7986 2.11697 10.9761 1.7852 11.233C1.45342 11.4899 1.18482 11.8193 0.999977 12.196C0.815129 12.5727 0.718932 12.9867 0.71875 13.4062V17.875C0.71875 18.1485 0.827399 18.4108 1.0208 18.6042C1.21419 18.7976 1.4765 18.9062 1.75 18.9062H21C21.2735 18.9062 21.5358 18.7976 21.7292 18.6042C21.9226 18.4108 22.0312 18.1485 22.0312 17.875V13.4062C22.0312 12.6769 21.7415 11.9774 21.2258 11.4617C20.7101 10.946 20.0106 10.6562 19.2812 10.6562ZM4.15625 16.8438H2.78125V13.4062C2.78125 13.2239 2.85368 13.049 2.98261 12.9201C3.11155 12.7912 3.28641 12.7188 3.46875 12.7188C3.65109 12.7188 3.82595 12.7912 3.95489 12.9201C4.08382 13.049 4.15625 13.2239 4.15625 13.4062V16.8438ZM9.68289 5.73547C10.2845 5.29375 10.886 4.84516 11.375 4.33727C11.8631 4.84516 12.4698 5.29375 13.0671 5.73547C14.5375 6.82344 16.05 7.94406 16.4367 9.96875H6.31328C6.7 7.94406 8.2125 6.82344 9.68289 5.73547ZM16.5312 16.8438H14.4688V14.4375C14.4688 14.164 14.3601 13.9017 14.1667 13.7083C13.9733 13.5149 13.711 13.4062 13.4375 13.4062C13.164 13.4062 12.9017 13.5149 12.7083 13.7083C12.5149 13.9017 12.4062 14.164 12.4062 14.4375V16.8438H10.3438V14.4375C10.3438 14.164 10.2351 13.9017 10.0417 13.7083C9.84831 13.5149 9.586 13.4062 9.3125 13.4062C9.039 13.4062 8.77669 13.5149 8.5833 13.7083C8.3899 13.9017 8.28125 14.164 8.28125 14.4375V16.8438H6.21875V12.0312H16.5312V16.8438ZM19.9688 16.8438H18.5938V13.4062C18.5938 13.2239 18.6662 13.049 18.7951 12.9201C18.924 12.7912 19.0989 12.7188 19.2812 12.7188C19.4636 12.7188 19.6385 12.7912 19.7674 12.9201C19.8963 13.049 19.9688 13.2239 19.9688 13.4062V16.8438Z" fill="#A3A3A3"/>
</g>
<defs>
<clipPath id="clip0_223_18">
<rect width="22" height="22" fill="white" transform="translate(0.375)"/>
</clipPath>
</defs>
</svg>
