<svg width="23" height="22" viewBox="0 0 23 22" fill="none" xmlns="http://www.w3.org/2000/svg">
<path d="M20.5625 3.78125H14.375C13.8596 3.78108 13.3496 3.88662 12.8766 4.09134C12.4036 4.29606 11.9776 4.59562 11.625 4.97148C11.2724 4.59562 10.8464 4.29606 10.3734 4.09134C9.90036 3.88662 9.3904 3.78108 8.875 3.78125H2.6875C2.414 3.78125 2.15169 3.8899 1.9583 4.0833C1.7649 4.27669 1.65625 4.539 1.65625 4.8125V17.1875C1.65625 17.461 1.7649 17.7233 1.9583 17.9167C2.15169 18.1101 2.414 18.2188 2.6875 18.2188H8.875C9.33084 18.2188 9.76801 18.3998 10.0903 18.7222C10.4127 19.0445 10.5938 19.4817 10.5938 19.9375C10.5938 20.211 10.7024 20.4733 10.8958 20.6667C11.0892 20.8601 11.3515 20.9688 11.625 20.9688C11.8985 20.9688 12.1608 20.8601 12.3542 20.6667C12.5476 20.4733 12.6562 20.211 12.6562 19.9375C12.6562 19.4817 12.8373 19.0445 13.1597 18.7222C13.482 18.3998 13.9192 18.2188 14.375 18.2188H20.5625C20.836 18.2188 21.0983 18.1101 21.2917 17.9167C21.4851 17.7233 21.5938 17.461 21.5938 17.1875V4.8125C21.5938 4.539 21.4851 4.27669 21.2917 4.0833C21.0983 3.8899 20.836 3.78125 20.5625 3.78125ZM8.875 16.1562H3.71875V5.84375H8.875C9.33084 5.84375 9.76801 6.02483 10.0903 6.34716C10.4127 6.66949 10.5938 7.10666 10.5938 7.5625V16.5696C10.0618 16.2973 9.47261 16.1556 8.875 16.1562ZM19.5312 16.1562H14.375C13.7772 16.1559 13.188 16.2982 12.6562 16.5713V7.5625C12.6562 7.10666 12.8373 6.66949 13.1597 6.34716C13.482 6.02483 13.9192 5.84375 14.375 5.84375H19.5312V16.1562ZM14.7188 8.25H17.4688C17.7423 8.25 18.0046 8.35865 18.198 8.55205C18.3913 8.74544 18.5 9.00775 18.5 9.28125C18.5 9.55475 18.3913 9.81706 18.198 10.0105C18.0046 10.2039 17.7423 10.3125 17.4688 10.3125H14.7188C14.4452 10.3125 14.1829 10.2039 13.9895 10.0105C13.7962 9.81706 13.6875 9.55475 13.6875 9.28125C13.6875 9.00775 13.7962 8.74544 13.9895 8.55205C14.1829 8.35865 14.4452 8.25 14.7188 8.25ZM18.5 12.7188C18.5 12.9923 18.3913 13.2546 18.198 13.448C18.0046 13.6413 17.7423 13.75 17.4688 13.75H14.7188C14.4452 13.75 14.1829 13.6413 13.9895 13.448C13.7962 13.2546 13.6875 12.9923 13.6875 12.7188C13.6875 12.4452 13.7962 12.1829 13.9895 11.9895C14.1829 11.7962 14.4452 11.6875 14.7188 11.6875H17.4688C17.7423 11.6875 18.0046 11.7962 18.198 11.9895C18.3913 12.1829 18.5 12.4452 18.5 12.7188Z" fill="#A3A3A3"/>
</svg>
